<svg version="1.1" id="Layer_1" xmlns="http://www.w3.org/2000/svg" xmlns:xlink="http://www.w3.org/1999/xlink" x="0px" y="0px"
	 width="100%" viewBox="0 0 160 160" enable-background="new 0 0 160 160" xml:space="preserve">
<path fill="#000000" opacity="1.000000" stroke="none" 
	d="
M103.000000,161.000000 
	C68.666672,161.000000 34.833340,161.000000 1.000009,161.000000 
	C1.000006,107.666679 1.000006,54.333355 1.000003,1.000023 
	C54.333317,1.000016 107.666634,1.000016 160.999969,1.000008 
	C160.999969,54.333309 160.999969,107.666618 160.999985,160.999969 
	C141.833328,161.000000 122.666664,161.000000 103.000000,161.000000 
M44.100708,45.924877 
	C36.467457,45.126770 28.834202,44.328667 21.200951,43.530560 
	C21.057064,44.145493 20.913179,44.760426 20.769293,45.375362 
	C22.847330,45.939495 24.925369,46.503632 27.649902,47.438416 
	C32.638954,48.483940 37.589817,49.962379 42.631863,50.407150 
	C45.501389,50.660278 46.314346,51.661552 47.445057,54.043327 
	C51.794144,63.204395 53.340569,73.795387 61.272457,81.504890 
	C61.416115,81.664314 61.574753,81.807098 62.221233,82.285011 
	C62.341820,82.440102 62.462402,82.595192 62.006397,83.146301 
	C62.044933,84.439461 61.743397,85.878113 62.217033,86.985115 
	C62.696869,88.106598 64.568588,88.794617 64.747589,89.855286 
	C65.618958,95.018631 69.450050,96.129463 74.055466,97.360573 
	C74.389145,97.848900 74.722824,98.337234 74.404274,99.221802 
	C63.584759,99.221802 52.765240,99.221802 41.546680,99.221802 
	C41.383060,100.276924 41.187969,101.535011 40.201378,102.872780 
	C39.143269,102.927292 38.085159,102.981804 36.754749,102.449593 
	C35.688866,101.798073 34.652203,100.644806 33.552109,100.580742 
	C28.430943,100.282471 23.280167,100.056404 18.167429,100.325684 
	C16.707380,100.402580 15.339456,102.228645 13.311443,103.140121 
	C12.894400,103.116837 12.477357,103.093552 11.583882,102.910431 
	C11.142742,104.703003 10.304753,106.501846 10.332984,108.286995 
	C10.427217,114.245613 10.831758,120.199326 11.153343,126.904160 
	C12.635917,127.276451 15.160729,128.354584 17.728922,128.470337 
	C24.820936,128.789978 31.932734,128.842102 39.033684,128.754562 
	C51.774258,128.597519 64.511604,128.176880 77.252182,128.021423 
	C91.973587,127.841789 106.697029,127.830086 121.419586,127.744705 
	C129.797989,127.696114 138.182114,127.815788 146.552628,127.532814 
	C151.562820,127.363441 153.092316,125.178246 151.173264,120.532196 
	C149.301773,116.001320 149.497528,111.872643 151.349533,107.551880 
	C151.731888,106.659874 151.863449,105.618134 151.916458,104.634941 
	C152.090225,101.411911 151.481750,99.285210 147.273361,99.479156 
	C140.010513,99.813866 132.702377,99.825775 125.446838,99.400299 
	C121.375374,99.161537 117.587852,98.425476 115.412064,103.837715 
	C112.723213,98.066795 107.981934,99.115974 103.815811,98.745041 
	C96.353615,98.080658 96.362541,98.137100 95.704613,90.833443 
	C95.647659,90.201172 95.240944,89.600403 95.174980,88.342453 
	C96.076523,86.824448 96.978065,85.306442 98.503883,84.177475 
	C101.109085,85.367195 102.690224,84.675217 103.949951,81.957878 
	C105.380295,78.872482 107.207344,75.921150 109.206322,73.160934 
	C112.175133,69.061569 112.477577,64.597557 111.911736,59.403862 
	C111.911736,59.403862 112.141739,58.977505 112.430923,58.559437 
	C112.590866,58.260731 112.750816,57.962025 112.996552,56.933403 
	C114.459091,54.817101 115.535301,51.390900 117.455017,50.824715 
	C123.768158,48.962784 130.405334,48.223248 136.873627,46.844234 
	C138.213745,46.558525 139.362900,45.377007 140.600067,44.608353 
	C140.467453,44.308338 140.334839,44.008320 140.202225,43.708305 
	C130.381638,44.601681 120.561058,45.495056 111.998589,46.273983 
	C111.175102,42.412136 110.954308,39.862793 109.980400,37.644012 
	C109.646889,36.884197 106.401909,36.406200 106.229988,36.728664 
	C104.813118,39.386208 103.806526,42.262486 102.245789,46.140377 
	C98.957581,46.470177 94.159286,46.643215 89.490807,47.512981 
	C85.440559,48.267570 82.007347,48.618832 81.043579,44.861866 
	C78.842377,45.946777 76.772797,47.853210 74.767471,47.787868 
	C68.909889,47.596996 63.077934,46.619259 56.745438,45.893730 
	C58.811863,41.462376 58.101196,38.169441 53.725342,36.258614 
	C48.914448,38.393711 49.744350,42.122684 50.182373,45.896240 
	C48.453159,45.917133 46.723946,45.938030 44.100708,45.924877 
z"/>
<path fill="#050504" opacity="1.000000" stroke="none" 
	d="
M94.996689,88.985001 
	C95.240944,89.600403 95.647659,90.201172 95.704613,90.833443 
	C96.362541,98.137100 96.353615,98.080658 103.815811,98.745041 
	C107.981934,99.115974 112.723213,98.066795 115.412064,103.837715 
	C117.587852,98.425476 121.375374,99.161537 125.446838,99.400299 
	C132.702377,99.825775 140.010513,99.813866 147.273361,99.479156 
	C151.481750,99.285210 152.090225,101.411911 151.916458,104.634941 
	C151.863449,105.618134 151.731888,106.659874 151.349533,107.551880 
	C149.497528,111.872643 149.301773,116.001320 151.173264,120.532196 
	C153.092316,125.178246 151.562820,127.363441 146.552628,127.532814 
	C138.182114,127.815788 129.797989,127.696114 121.419586,127.744705 
	C106.697029,127.830086 91.973587,127.841789 77.252182,128.021423 
	C64.511604,128.176880 51.774258,128.597519 39.033684,128.754562 
	C31.932734,128.842102 24.820936,128.789978 17.728922,128.470337 
	C15.160729,128.354584 12.635917,127.276451 11.153343,126.904160 
	C10.831758,120.199326 10.427217,114.245613 10.332984,108.286995 
	C10.304753,106.501846 11.142742,104.703003 11.887153,103.334839 
	C13.386555,106.182312 14.582686,108.605392 15.887261,111.248154 
	C16.930014,108.721039 17.899172,106.372276 18.326361,105.336983 
	C16.602827,104.519974 15.266059,103.886299 13.929289,103.252632 
	C15.339456,102.228645 16.707380,100.402580 18.167429,100.325684 
	C23.280167,100.056404 28.430943,100.282471 33.552109,100.580742 
	C34.652203,100.644806 35.688866,101.798073 37.043381,103.031586 
	C38.587132,104.589958 39.842247,105.566353 41.064308,106.517036 
	C42.001911,105.797066 42.950565,105.068611 44.436646,103.927483 
	C44.907940,106.734360 45.266079,108.867302 45.491489,110.209785 
	C47.737114,109.284882 49.833542,108.421432 52.508141,107.319847 
	C52.508141,107.568199 52.508141,106.460327 52.508141,106.088066 
	C50.676762,105.819756 49.008495,105.772903 47.469566,105.302734 
	C45.261219,104.628052 43.147179,103.644684 40.992874,102.793098 
	C41.187969,101.535011 41.383060,100.276924 41.546680,99.221802 
	C52.765240,99.221802 63.584759,99.221802 75.100861,99.003510 
	C78.995415,98.264305 82.193390,97.743401 85.291153,97.238823 
	C88.189949,94.773613 91.593315,91.879303 94.996689,88.985001 
M113.960930,124.400436 
	C113.946732,123.925865 113.932533,123.451294 113.748367,122.318489 
	C112.870590,122.168503 111.992821,122.018524 111.081696,121.277039 
	C111.102448,120.883011 111.123199,120.488991 111.759773,120.006172 
	C112.283401,119.872482 112.807022,119.738792 113.330650,119.605095 
	C113.239365,119.328636 113.148087,119.052177 113.056801,118.775711 
	C112.018791,119.179390 110.980782,119.583061 109.396034,120.428535 
	C109.568329,121.962173 109.740631,123.495811 110.240387,125.644447 
	C111.477623,125.467178 112.714859,125.289917 113.960930,124.400436 
M76.484451,119.199776 
	C71.881104,118.054802 72.829720,121.454056 72.386734,124.168068 
	C72.483459,124.475212 72.580177,124.782356 73.145554,125.551643 
	C74.428932,124.347511 75.712311,123.143372 76.969398,121.238319 
	C76.952057,120.770973 76.934708,120.303619 76.484451,119.199776 
M21.556845,124.109871 
	C22.427052,123.958588 23.297258,123.807312 24.167467,123.656036 
	C23.420107,121.646431 22.672749,119.636826 21.925388,117.627220 
	C21.487957,117.797897 21.050526,117.968582 20.613094,118.139267 
	C20.746138,118.896385 20.879183,119.653503 20.578384,120.991402 
	C20.708792,121.988724 20.839199,122.986038 21.556845,124.109871 
M28.699339,108.901047 
	C29.555092,107.681503 30.410847,106.461967 31.730759,104.580956 
	C28.408751,104.100182 26.448565,103.816490 24.314106,103.507584 
	C25.705139,105.592796 26.824055,107.270088 27.380598,109.085167 
	C26.508871,109.474350 25.637142,109.863533 24.765415,110.252716 
	C24.926056,110.516525 25.086697,110.780334 25.247337,111.044136 
	C26.175714,110.379486 27.104092,109.714836 28.699339,108.901047 
M69.165962,108.053947 
	C69.741325,107.914856 70.316696,107.775757 71.632942,107.457565 
	C69.854698,106.679657 68.770981,106.205582 67.051308,105.453308 
	C68.825722,104.727249 69.917412,104.280556 71.009094,103.833870 
	C70.865143,103.413582 70.721191,102.993294 70.577240,102.573013 
	C68.693497,103.271866 65.851654,103.474503 65.167862,104.794815 
	C64.307671,106.455711 64.587044,109.408180 65.589813,111.070236 
	C66.194244,112.072052 69.108238,111.680435 70.984413,111.914978 
	C68.113998,109.843590 68.113998,109.843590 69.165962,108.053947 
M86.755806,106.142479 
	C86.664619,102.555412 83.293854,102.085930 81.985039,103.328133 
	C80.327705,104.901108 80.208076,108.094269 79.425262,110.588676 
	C79.848404,110.722771 80.271545,110.856865 80.694687,110.990952 
	C82.627243,109.609703 84.559807,108.228455 86.755806,106.142479 
M73.180313,106.176659 
	C73.133301,109.440437 72.639709,113.131165 77.341927,111.677437 
	C76.231949,109.001022 75.212219,106.542213 74.076775,103.804382 
	C73.766823,104.407852 73.499565,104.928207 73.180313,106.176659 
M136.630829,124.627563 
	C136.711182,123.228935 136.791534,121.830307 136.871872,120.431679 
	C136.384369,120.473869 135.896851,120.516052 135.409332,120.558235 
	C135.586533,121.829384 135.763718,123.100525 136.630829,124.627563 
M94.742607,122.071747 
	C94.679497,122.995003 94.616386,123.918251 94.553276,124.841507 
	C94.990471,124.808594 95.427673,124.775673 95.864868,124.742760 
	C95.711258,123.918381 95.557648,123.094002 94.742607,122.071747 
M78.503830,121.451492 
	C78.503830,121.451492 78.535233,121.518036 78.503830,121.451492 
M26.522305,126.493835 
	C26.522305,126.493835 26.486828,126.504265 26.522305,126.493835 
z"/>
<path fill="#0D8C47" opacity="1.000000" stroke="none" 
	d="
M95.085831,88.663727 
	C91.593315,91.879303 88.189949,94.773613 85.291153,97.238823 
	C82.193390,97.743401 78.995415,98.264305 75.426971,98.805389 
	C74.722824,98.337234 74.389145,97.848900 73.807861,96.861290 
	C73.026062,95.579033 72.491875,94.796059 72.350449,94.003250 
	C74.204033,93.576408 75.664848,93.159409 77.383682,93.003189 
	C78.700966,93.810547 80.480453,95.035667 80.705750,94.796532 
	C82.535004,92.854942 84.805061,90.872307 85.571915,88.465935 
	C88.721298,78.583282 92.342957,69.042816 99.174789,60.979755 
	C100.264542,59.693611 100.619110,57.643848 100.941505,55.879143 
	C101.515221,52.738750 100.595703,50.855846 96.807144,50.915169 
	C85.918053,51.085682 75.022400,50.898117 64.136871,51.162231 
	C62.672871,51.197750 61.252243,53.020893 59.656952,53.761608 
	C58.847481,52.160324 58.450619,50.577377 57.481182,49.518799 
	C55.742435,47.620178 54.526039,44.398907 50.865696,45.936962 
	C49.744350,42.122684 48.914448,38.393711 53.725342,36.258614 
	C58.101196,38.169441 58.811863,41.462376 56.745438,45.893730 
	C63.077934,46.619259 68.909889,47.596996 74.767471,47.787868 
	C76.772797,47.853210 78.842377,45.946777 81.043579,44.861866 
	C82.007347,48.618832 85.440559,48.267570 89.490807,47.512981 
	C94.159286,46.643215 98.957581,46.470177 102.245789,46.140377 
	C103.806526,42.262486 104.813118,39.386208 106.229988,36.728664 
	C106.401909,36.406200 109.646889,36.884197 109.980400,37.644012 
	C110.954308,39.862793 111.175102,42.412136 111.998589,46.273983 
	C120.561058,45.495056 130.381638,44.601681 140.202225,43.708305 
	C140.334839,44.008320 140.467453,44.308338 140.600067,44.608353 
	C139.362900,45.377007 138.213745,46.558525 136.873627,46.844234 
	C130.405334,48.223248 123.768158,48.962784 117.455017,50.824715 
	C115.535301,51.390900 114.459091,54.817101 112.744598,57.463711 
	C112.375671,58.321846 112.258705,58.649673 112.141739,58.977505 
	C112.141739,58.977505 111.911736,59.403862 111.581329,59.878723 
	C108.374290,69.066986 104.715790,77.334259 97.879608,83.788437 
	C96.978065,85.306442 96.076523,86.824448 95.085831,88.663727 
z"/>
<path fill="#0A9048" opacity="1.000000" stroke="none" 
	d="
M50.524033,45.916603 
	C54.526039,44.398907 55.742435,47.620178 57.481182,49.518799 
	C58.450619,50.577377 58.847481,52.160324 59.712791,54.122208 
	C59.960312,55.466621 59.997417,56.195786 60.058521,57.246471 
	C60.381866,58.354572 60.681221,59.141148 61.218567,60.167767 
	C63.950558,64.094902 66.986443,67.533279 68.818214,71.524315 
	C71.981392,78.416168 74.396622,85.651299 77.125664,92.742409 
	C75.664848,93.159409 74.204033,93.576408 72.060585,93.840286 
	C68.446297,90.041542 65.514641,86.395912 62.582989,82.750282 
	C62.462402,82.595192 62.341820,82.440102 61.927467,81.949127 
	C61.498783,81.410973 61.311096,81.291626 61.070641,81.255211 
	C53.340569,73.795387 51.794144,63.204395 47.445057,54.043327 
	C46.314346,51.661552 45.501389,50.660278 42.631863,50.407150 
	C37.589817,49.962379 32.638954,48.483940 27.657658,47.056007 
	C29.750193,46.650631 31.837679,46.686852 33.919159,46.591682 
	C37.612938,46.422791 41.303074,46.174183 44.994732,45.958923 
	C46.723946,45.938030 48.453159,45.917133 50.524033,45.916603 
z"/>
<path fill="#050504" opacity="1.000000" stroke="none" 
	d="
M98.191742,83.982956 
	C104.715790,77.334259 108.374290,69.066986 111.509933,60.110184 
	C112.477577,64.597557 112.175133,69.061569 109.206322,73.160934 
	C107.207344,75.921150 105.380295,78.872482 103.949951,81.957878 
	C102.690224,84.675217 101.109085,85.367195 98.191742,83.982956 
z"/>
<path fill="#20623F" opacity="1.000000" stroke="none" 
	d="
M40.597130,102.832939 
	C43.147179,103.644684 45.261219,104.628052 47.469566,105.302734 
	C49.008495,105.772903 50.676762,105.819756 52.508141,106.088066 
	C52.508141,106.460327 52.508141,107.568199 52.508141,107.319847 
	C49.833542,108.421432 47.737114,109.284882 45.491489,110.209785 
	C45.266079,108.867302 44.907940,106.734360 44.436646,103.927483 
	C42.950565,105.068611 42.001911,105.797066 41.064308,106.517036 
	C39.842247,105.566353 38.587132,104.589958 37.179531,103.324944 
	C38.085159,102.981804 39.143269,102.927292 40.597130,102.832939 
z"/>
<path fill="#050504" opacity="1.000000" stroke="none" 
	d="
M62.294693,82.948288 
	C65.514641,86.395912 68.446297,90.041542 71.667816,93.850128 
	C72.491875,94.796059 73.026062,95.579033 73.599922,96.647949 
	C69.450050,96.129463 65.618958,95.018631 64.747589,89.855286 
	C64.568588,88.794617 62.696869,88.106598 62.217033,86.985115 
	C61.743397,85.878113 62.044933,84.439461 62.294693,82.948288 
z"/>
<path fill="#177441" opacity="1.000000" stroke="none" 
	d="
M44.547722,45.941902 
	C41.303074,46.174183 37.612938,46.422791 33.919159,46.591682 
	C31.837679,46.686852 29.750193,46.650631 27.334408,46.870682 
	C24.925369,46.503632 22.847330,45.939495 20.769293,45.375362 
	C20.913179,44.760426 21.057064,44.145493 21.200951,43.530560 
	C28.834202,44.328667 36.467457,45.126770 44.547722,45.941902 
z"/>
<path fill="#206540" opacity="1.000000" stroke="none" 
	d="
M13.620367,103.196381 
	C15.266059,103.886299 16.602827,104.519974 18.326361,105.336983 
	C17.899172,106.372276 16.930014,108.721039 15.887261,111.248154 
	C14.582686,108.605392 13.386555,106.182312 12.125368,103.414749 
	C12.477357,103.093552 12.894400,103.116837 13.620367,103.196381 
z"/>
<path fill="#050504" opacity="1.000000" stroke="none" 
	d="
M112.286331,58.768471 
	C112.258705,58.649673 112.375671,58.321846 112.701706,57.828667 
	C112.750816,57.962025 112.590866,58.260731 112.286331,58.768471 
z"/>
<path fill="#050504" opacity="1.000000" stroke="none" 
	d="
M61.171547,81.380051 
	C61.311096,81.291626 61.498783,81.410973 61.691040,81.773239 
	C61.574753,81.807098 61.416115,81.664314 61.171547,81.380051 
z"/>
<path fill="#247546" opacity="1.000000" stroke="none" 
	d="
M68.848801,108.092484 
	C68.113998,109.843590 68.113998,109.843590 70.984413,111.914978 
	C69.108238,111.680435 66.194244,112.072052 65.589813,111.070236 
	C64.587044,109.408180 64.307671,106.455711 65.167862,104.794815 
	C65.851654,103.474503 68.693497,103.271866 70.577240,102.573013 
	C70.721191,102.993294 70.865143,103.413582 71.009094,103.833870 
	C69.917412,104.280556 68.825722,104.727249 67.051308,105.453308 
	C68.770981,106.205582 69.854698,106.679657 71.632942,107.457565 
	C70.316696,107.775757 69.741325,107.914856 68.848801,108.092484 
z"/>
<path fill="#1E633D" opacity="1.000000" stroke="none" 
	d="
M86.624084,106.494843 
	C84.559807,108.228455 82.627243,109.609703 80.694687,110.990952 
	C80.271545,110.856865 79.848404,110.722771 79.425262,110.588676 
	C80.208076,108.094269 80.327705,104.901108 81.985039,103.328133 
	C83.293854,102.085930 86.664619,102.555412 86.624084,106.494843 
z"/>
<path fill="#1B613B" opacity="1.000000" stroke="none" 
	d="
M73.206314,105.812607 
	C73.499565,104.928207 73.766823,104.407852 74.076775,103.804382 
	C75.212219,106.542213 76.231949,109.001022 77.341927,111.677437 
	C72.639709,113.131165 73.133301,109.440437 73.206314,105.812607 
z"/>
<path fill="#070F09" opacity="1.000000" stroke="none" 
	d="
M27.942970,108.947380 
	C26.824055,107.270088 25.705139,105.592796 24.314106,103.507584 
	C26.448565,103.816490 28.408751,104.100182 31.730759,104.580956 
	C30.410847,106.461967 29.555092,107.681503 28.344151,108.949371 
	C27.988962,108.997696 27.942970,108.947380 27.942970,108.947380 
z"/>
<path fill="#120909" opacity="1.000000" stroke="none" 
	d="
M21.012226,120.410622 
	C20.879183,119.653503 20.746138,118.896385 20.613094,118.139267 
	C21.050526,117.968582 21.487957,117.797897 21.925388,117.627220 
	C22.672749,119.636826 23.420107,121.646431 24.167467,123.656036 
	C23.297258,123.807312 22.427052,123.958588 21.332954,123.599869 
	C21.076784,122.196777 21.044506,121.303703 21.012226,120.410622 
z"/>
<path fill="#C07740" opacity="1.000000" stroke="none" 
	d="
M72.627831,123.911636 
	C72.829720,121.454056 71.881104,118.054802 76.325745,119.558151 
	C75.496613,120.327515 74.826180,120.738503 74.155746,121.149490 
	C75.102394,121.412735 76.049042,121.675987 76.995689,121.939240 
	C75.712311,123.143372 74.428932,124.347511 72.965492,125.023308 
	C72.732903,124.300529 72.680367,124.106087 72.627831,123.911636 
z"/>
<path fill="#875832" opacity="1.000000" stroke="none" 
	d="
M111.143959,120.094963 
	C111.123199,120.488991 111.102448,120.883011 110.978661,121.719559 
	C110.954956,122.482681 111.034279,122.803284 111.093933,123.420715 
	C111.097031,124.113182 111.119797,124.508827 110.834305,124.927315 
	C110.321671,124.976593 110.117294,125.003021 109.912926,125.029449 
	C109.740631,123.495811 109.568329,121.962173 109.969360,120.238342 
	C110.743118,120.063751 110.943542,120.079361 111.143959,120.094963 
z"/>
<path fill="#8E5D3B" opacity="1.000000" stroke="none" 
	d="
M136.285873,124.499619 
	C135.763718,123.100525 135.586533,121.829384 135.409332,120.558235 
	C135.896851,120.516052 136.384369,120.473869 136.871872,120.431679 
	C136.791534,121.830307 136.711182,123.228935 136.285873,124.499619 
z"/>
<path fill="#9F6440" opacity="1.000000" stroke="none" 
	d="
M95.073326,122.170685 
	C95.557648,123.094002 95.711258,123.918381 95.864868,124.742760 
	C95.427673,124.775673 94.990471,124.808594 94.553276,124.841507 
	C94.616386,123.918251 94.679497,122.995003 95.073326,122.170685 
z"/>
<path fill="#070F09" opacity="1.000000" stroke="none" 
	d="
M28.010715,109.023941 
	C27.104092,109.714836 26.175714,110.379486 25.247337,111.044136 
	C25.086697,110.780334 24.926056,110.516525 24.765415,110.252716 
	C25.637142,109.863533 26.508871,109.474350 27.661785,109.016273 
	C27.942970,108.947380 27.988962,108.997696 28.010715,109.023941 
z"/>
<path fill="#1A0F0D" opacity="1.000000" stroke="none" 
	d="
M76.982544,121.588776 
	C76.049042,121.675987 75.102394,121.412735 74.155746,121.149490 
	C74.826180,120.738503 75.496613,120.327515 76.542206,119.876404 
	C76.934708,120.303619 76.952057,120.770973 76.982544,121.588776 
z"/>
<path fill="#030203" opacity="1.000000" stroke="none" 
	d="
M111.142570,124.904465 
	C111.119797,124.508827 111.097031,124.113182 111.442001,123.363235 
	C112.512596,122.998199 113.215462,122.987465 113.918335,122.976730 
	C113.932533,123.451294 113.946732,123.925865 113.606735,124.712082 
	C112.549217,124.983971 111.845894,124.944221 111.142570,124.904465 
z"/>
<path fill="#B77952" opacity="1.000000" stroke="none" 
	d="
M111.451866,120.050568 
	C110.943542,120.079361 110.743118,120.063751 110.242737,120.017441 
	C110.980782,119.583061 112.018791,119.179390 113.056801,118.775711 
	C113.148087,119.052177 113.239365,119.328636 113.330650,119.605095 
	C112.807022,119.738792 112.283401,119.872482 111.451866,120.050568 
z"/>
<path fill="#AC7655" opacity="1.000000" stroke="none" 
	d="
M110.834305,124.927322 
	C111.845894,124.944221 112.549217,124.983971 113.602318,125.068192 
	C112.714859,125.289917 111.477623,125.467178 110.076660,125.336945 
	C110.117294,125.003021 110.321671,124.976593 110.834305,124.927322 
z"/>
<path fill="#CA7E41" opacity="1.000000" stroke="none" 
	d="
M113.833344,122.647614 
	C113.215462,122.987465 112.512596,122.998199 111.461670,123.066406 
	C111.034279,122.803284 110.954956,122.482681 110.995331,122.015305 
	C111.992821,122.018524 112.870590,122.168503 113.833344,122.647614 
z"/>
<path fill="#B77952" opacity="1.000000" stroke="none" 
	d="
M20.795307,120.701012 
	C21.044506,121.303703 21.076784,122.196777 21.039333,123.536606 
	C20.839199,122.986038 20.708792,121.988724 20.795307,120.701012 
z"/>
<path fill="#1A0F0D" opacity="1.000000" stroke="none" 
	d="
M78.519531,121.484764 
	C78.535233,121.518036 78.503830,121.451492 78.519531,121.484764 
z"/>
<path fill="#472B15" opacity="1.000000" stroke="none" 
	d="
M72.507278,124.039856 
	C72.680367,124.106087 72.732903,124.300529 72.731171,124.792236 
	C72.580177,124.782356 72.483459,124.475212 72.507278,124.039856 
z"/>
<path fill="#120909" opacity="1.000000" stroke="none" 
	d="
M26.504566,126.499054 
	C26.486828,126.504265 26.522305,126.493835 26.504566,126.499054 
z"/>
<path fill="#050404" opacity="1.000000" stroke="none" 
	d="
M60.034523,56.924950 
	C59.997417,56.195786 59.960312,55.466621 59.867367,54.376854 
	C61.252243,53.020893 62.672871,51.197750 64.136871,51.162231 
	C75.022400,50.898117 85.918053,51.085682 96.807144,50.915169 
	C100.595703,50.855846 101.515221,52.738750 100.941505,55.879143 
	C100.619110,57.643848 100.264542,59.693611 99.174789,60.979755 
	C92.342957,69.042816 88.721298,78.583282 85.571915,88.465935 
	C84.805061,90.872307 82.535004,92.854942 80.705750,94.796532 
	C80.480453,95.035667 78.700966,93.810547 77.383682,93.003189 
	C74.396622,85.651299 71.981392,78.416168 68.818214,71.524315 
	C66.986443,67.533279 63.950558,64.094902 61.200321,59.849350 
	C60.640896,58.502251 60.337708,57.713600 60.034523,56.924950 
M79.231049,85.630379 
	C80.416733,85.367104 81.602417,85.103828 82.917572,83.957253 
	C80.699303,73.603928 88.868828,67.440933 93.702675,58.440567 
	C85.772697,60.056160 85.454453,67.446121 81.242348,70.725693 
	C76.513321,67.790367 76.983971,59.422859 68.430817,58.888092 
	C72.372978,64.831573 75.740181,69.908195 79.006073,75.872704 
	C79.054726,78.254242 79.103386,80.635780 79.030396,83.631950 
	C79.071915,84.045471 79.113434,84.458984 79.231049,85.630379 
z"/>
<path fill="#0D8C47" opacity="1.000000" stroke="none" 
	d="
M60.058517,57.246471 
	C60.337708,57.713600 60.640896,58.502251 60.962326,59.609314 
	C60.681221,59.141148 60.381866,58.354572 60.058517,57.246471 
z"/>
<path fill="#DA7B27" opacity="1.000000" stroke="none" 
	d="
M79.107384,74.984825 
	C75.740181,69.908195 72.372978,64.831573 68.430817,58.888092 
	C76.983971,59.422859 76.513321,67.790367 81.242348,70.725693 
	C85.454453,67.446121 85.772697,60.056160 93.702675,58.440567 
	C88.868828,67.440933 80.699303,73.603928 82.490433,84.439941 
	C81.093849,84.905930 80.124405,84.889221 79.154953,84.872505 
	C79.113434,84.458984 79.071915,84.045471 79.239288,82.977951 
	C79.334587,79.877571 79.220985,77.431198 79.107384,74.984825 
z"/>
<path fill="#D07C40" opacity="1.000000" stroke="none" 
	d="
M79.056732,75.428764 
	C79.220985,77.431198 79.334587,79.877571 79.300110,82.670631 
	C79.103386,80.635780 79.054726,78.254242 79.056732,75.428764 
z"/>
<path fill="#D07C40" opacity="1.000000" stroke="none" 
	d="
M79.193001,85.251442 
	C80.124405,84.889221 81.093849,84.905930 82.425705,84.881592 
	C81.602417,85.103828 80.416733,85.367104 79.193001,85.251442 
z"/>
</svg>